<svg aria-hidden="true" style="position: absolute; width: 0; height: 0; overflow: hidden;" version="1.1" xmlns="http://www.w3.org/2000/svg" xmlns:xlink="http://www.w3.org/1999/xlink">
<defs>
<symbol id="icon-mail" viewBox="0 0 60 45">
<path d="M52.5 0h-45c-3.094 0-5.599 2.531-5.599 5.625l-0.026 33.75c0 3.094 2.531 5.625 5.625 5.625h45c3.094 0 5.625-2.531 5.625-5.625v-33.75c0-3.094-2.531-5.625-5.625-5.625zM51.375 11.955l-19.882 12.428c-0.424 0.265-0.939 0.422-1.491 0.422s-1.067-0.157-1.503-0.429l0.012 0.007-19.886-12.431c-0.708-0.423-1.175-1.186-1.175-2.057 0-1.319 1.069-2.389 2.389-2.389 0.491 0 0.947 0.148 1.326 0.401l-0.009-0.005 18.844 11.786 18.844-11.786c0.371-0.248 0.827-0.396 1.317-0.396 1.319 0 2.389 1.069 2.389 2.389 0 0.871-0.467 1.634-1.164 2.051l-0.011 0.006z"></path>
</symbol>
<symbol id="icon-name" viewBox="0 0 45 45">
<path d="M22.5 22.5c6.213 0 11.25-5.037 11.25-11.25s-5.037-11.25-11.25-11.25v0c-6.213 0-11.25 5.037-11.25 11.25s5.037 11.25 11.25 11.25v0zM22.5 28.125c-7.507 0-22.5 3.769-22.5 11.25v2.813c0 1.545 1.268 2.813 2.813 2.813h39.375c1.545 0 2.813-1.268 2.813-2.813v-2.813c0-7.481-14.993-11.25-22.5-11.25z"></path>
</symbol>
<symbol id="icon-tel" viewBox="0 0 45 45">
<path d="M38.559 29.324l-5.908-0.675c-0.163-0.020-0.351-0.032-0.542-0.032-1.278 0-2.436 0.518-3.273 1.356l-4.281 4.281c-6.634-3.424-11.906-8.697-15.237-15.137l-0.092-0.195 4.307-4.297c0.838-0.838 1.356-1.995 1.356-3.273 0-0.191-0.012-0.379-0.034-0.564l0.002 0.022-0.675-5.863c-0.28-2.328-2.243-4.114-4.623-4.114-0.002 0-0.004 0-0.006 0h-4.024c-2.629-0.006-4.815 2.179-4.654 4.805 1.234 19.864 17.122 35.73 36.964 36.964 2.626 0.161 4.815-2.025 4.815-4.654v-4.024c0-0.007 0-0.015 0-0.022 0-2.364-1.78-4.313-4.074-4.578l-0.021-0.002z"></path>
</symbol>
</defs>
</svg>
