<svg aria-hidden="true" style="position: absolute; width: 0; height: 0; overflow: hidden;" version="1.1" xmlns="http://www.w3.org/2000/svg" xmlns:xlink="http://www.w3.org/1999/xlink">
<defs>
<symbol id="icon-Vector" viewBox="0 0 45 45">
<path d="M45 4.533l-4.533-4.533-17.967 17.967-17.967-17.967-4.533 4.533 17.967 17.967-17.967 17.967 4.533 4.533 17.967-17.967 17.967 17.967 4.533-4.533-17.967-17.967 17.967-17.967z"></path>
</symbol>
<symbol id="icon-facebook" viewBox="0 0 45 45">
<path d="M26.719 8.438h7.031v-8.438h-7.031c-5.428 0-9.844 4.416-9.844 9.844v4.219h-5.625v8.438h5.625v22.5h8.438v-22.5h7.031l1.406-8.438h-8.438v-4.219c0-0.762 0.644-1.406 1.406-1.406z"></path>
</symbol>
<symbol id="icon-instagram" viewBox="0 0 45 45">
<path d="M22.5 4.052c6.012 0 6.724 0.026 9.088 0.132 2.197 0.097 3.384 0.466 4.175 0.773 1.046 0.404 1.802 0.896 2.584 1.679 0.791 0.791 1.274 1.538 1.688 2.584 0.308 0.791 0.677 1.986 0.773 4.175 0.105 2.373 0.132 3.085 0.132 9.088s-0.026 6.724-0.132 9.088c-0.097 2.197-0.466 3.384-0.773 4.175-0.404 1.046-0.896 1.802-1.679 2.584-0.791 0.791-1.538 1.274-2.584 1.688-0.791 0.308-1.986 0.677-4.175 0.773-2.373 0.105-3.085 0.132-9.088 0.132s-6.724-0.026-9.088-0.132c-2.197-0.097-3.384-0.466-4.175-0.773-1.046-0.404-1.802-0.896-2.584-1.679-0.791-0.791-1.274-1.538-1.688-2.584-0.308-0.791-0.677-1.986-0.773-4.175-0.105-2.373-0.132-3.085-0.132-9.088s0.026-6.724 0.132-9.088c0.097-2.197 0.466-3.384 0.773-4.175 0.404-1.046 0.896-1.802 1.679-2.584 0.791-0.791 1.538-1.274 2.584-1.688 0.791-0.308 1.986-0.677 4.175-0.773 2.364-0.105 3.076-0.132 9.088-0.132zM22.5 0c-6.108 0-6.873 0.026-9.272 0.132-2.391 0.105-4.034 0.492-5.458 1.046-1.485 0.58-2.742 1.345-3.99 2.602-1.257 1.248-2.021 2.505-2.602 3.981-0.554 1.433-0.94 3.067-1.046 5.458-0.105 2.408-0.132 3.173-0.132 9.281s0.026 6.873 0.132 9.272c0.105 2.391 0.492 4.034 1.046 5.458 0.58 1.485 1.345 2.742 2.602 3.99 1.248 1.248 2.505 2.021 3.981 2.593 1.433 0.554 3.067 0.94 5.458 1.046 2.399 0.105 3.164 0.132 9.272 0.132s6.873-0.026 9.272-0.132c2.391-0.105 4.034-0.492 5.458-1.046 1.477-0.571 2.733-1.345 3.981-2.593s2.021-2.505 2.593-3.981c0.554-1.433 0.94-3.067 1.046-5.458 0.105-2.399 0.132-3.164 0.132-9.272s-0.026-6.873-0.132-9.272c-0.105-2.391-0.492-4.034-1.046-5.458-0.554-1.494-1.318-2.751-2.575-3.999-1.248-1.248-2.505-2.021-3.981-2.593-1.433-0.554-3.067-0.94-5.458-1.046-2.408-0.114-3.173-0.141-9.281-0.141v0z"></path>
<path d="M22.5 10.942c-6.381 0-11.558 5.177-11.558 11.558s5.177 11.558 11.558 11.558 11.558-5.177 11.558-11.558c0-6.381-5.177-11.558-11.558-11.558zM22.5 29.997c-4.14 0-7.497-3.357-7.497-7.497s3.357-7.497 7.497-7.497c4.14 0 7.497 3.357 7.497 7.497s-3.357 7.497-7.497 7.497z"></path>
<path d="M37.213 10.485c0 1.49-1.208 2.698-2.698 2.698s-2.698-1.208-2.698-2.698c0-1.49 1.208-2.698 2.698-2.698s2.698 1.208 2.698 2.698z"></path>
</symbol>
<symbol id="icon-twitter" viewBox="0 0 45 45">
<path d="M45 9.949c-1.652 0.738-3.437 1.23-5.3 1.45 1.907-1.143 3.366-2.953 4.061-5.106-1.784 1.055-3.762 1.828-5.862 2.241-1.688-1.793-4.087-2.909-6.741-2.909-5.098 0-9.229 4.131-9.229 9.229 0 0.721 0.079 1.424 0.237 2.101-7.673-0.387-14.476-4.061-19.028-9.65-0.791 1.362-1.248 2.953-1.248 4.641 0 3.199 1.626 6.029 4.104 7.682-1.512-0.044-2.936-0.466-4.184-1.151 0 0.035 0 0.079 0 0.114 0 4.474 3.182 8.209 7.409 9.053-0.773 0.211-1.591 0.325-2.435 0.325-0.598 0-1.169-0.062-1.74-0.167 1.178 3.665 4.588 6.337 8.622 6.416-3.164 2.479-7.137 3.955-11.47 3.955-0.747 0-1.477-0.044-2.206-0.132 4.096 2.628 8.947 4.148 14.159 4.148 16.98 0 26.271-14.071 26.271-26.271 0-0.404-0.009-0.8-0.026-1.195 1.802-1.292 3.366-2.918 4.605-4.772z"></path>
</symbol>
<symbol id="icon-linkedin2" viewBox="0 0 45 45">
<path d="M16.875 16.875h7.783v3.989h0.111c1.083-1.942 3.734-3.989 7.683-3.989 8.215 0 9.735 5.114 9.735 11.766v13.547h-8.113v-12.009c0-2.865-0.059-6.549-4.22-6.549-4.225 0-4.87 3.12-4.87 6.341v12.217h-8.11v-25.313z"></path>
<path d="M2.813 16.875h8.438v25.313h-8.438v-25.313z"></path>
<path d="M11.25 9.844c0 2.33-1.889 4.219-4.219 4.219s-4.219-1.889-4.219-4.219c0-2.33 1.889-4.219 4.219-4.219s4.219 1.889 4.219 4.219z"></path>
</symbol>
</defs>
</svg>
